<?xml version="1.0" encoding="UTF-8" standalone="no"?>
<!-- Created with Inkscape (http://www.inkscape.org/) -->

<svg
   width="155.21928mm"
   height="17.799597mm"
   viewBox="0 0 155.21928 17.799597"
   version="1.1"
   id="svg1"
   sodipodi:docname="drawing_r2.svg"
   inkscape:version="1.4.3 (0d15f75042, 2025-12-25)"
   xmlns:inkscape="http://www.inkscape.org/namespaces/inkscape"
   xmlns:sodipodi="http://sodipodi.sourceforge.net/DTD/sodipodi-0.dtd"
   xmlns="http://www.w3.org/2000/svg"
   xmlns:svg="http://www.w3.org/2000/svg">
  <sodipodi:namedview
     id="namedview1"
     pagecolor="#ffffff"
     bordercolor="#000000"
     borderopacity="0.25"
     inkscape:showpageshadow="2"
     inkscape:pageopacity="0.0"
     inkscape:pagecheckerboard="0"
     inkscape:deskcolor="#d1d1d1"
     inkscape:document-units="mm"
     inkscape:zoom="1.1848949"
     inkscape:cx="597.09937"
     inkscape:cy="181.02871"
     inkscape:window-width="2607"
     inkscape:window-height="2116"
     inkscape:window-x="0"
     inkscape:window-y="0"
     inkscape:window-maximized="1"
     inkscape:current-layer="layer1" />
  <defs
     id="defs1" />
  <g
     inkscape:label="Layer 1"
     inkscape:groupmode="layer"
     id="layer1"
     transform="translate(-35.341295,-87.663411)">
    <g
       id="text1"
       style="font-size:5.64444px;font-family:'Fira Code';-inkscape-font-specification:'Fira Code';stroke-width:0.264583"
       aria-label="Call[SomeMethod](param1, param2, param3, ...)">
      <path
         d="m 37.046205,88.47679 q 0.390769,0 0.654176,0.09842 0.263407,0.09842 0.500763,0.289458 l -0.280774,0.327088 q -0.188148,-0.159202 -0.399453,-0.225777 -0.20841,-0.06947 -0.437082,-0.06947 -0.327088,0 -0.604969,0.156307 -0.27788,0.153413 -0.44866,0.512342 -0.167886,0.356034 -0.167886,0.966791 0,0.59339 0.159202,0.952318 0.162097,0.358929 0.437082,0.518131 0.274986,0.159202 0.613652,0.159202 0.335772,0 0.549971,-0.10131 0.217094,-0.101311 0.376296,-0.231567 l 0.260513,0.329983 q -0.182359,0.176569 -0.474712,0.306826 -0.292353,0.127361 -0.717857,0.127361 -0.483396,0 -0.877059,-0.237356 -0.390769,-0.237356 -0.619441,-0.6947 -0.228672,-0.460239 -0.228672,-1.128888 0,-0.671544 0.231566,-1.128888 0.234462,-0.457344 0.622336,-0.691806 0.390769,-0.234461 0.851008,-0.234461 z m 4.16531,3.383769 q 0,0.182359 0.06079,0.266302 0.06079,0.08394 0.188148,0.124467 l -0.118678,0.341561 q -0.196832,-0.02605 -0.344455,-0.124467 -0.147624,-0.10131 -0.2142,-0.303931 -0.164991,0.211304 -0.411031,0.321299 -0.246039,0.107099 -0.544182,0.107099 -0.457344,0 -0.720751,-0.257618 -0.263407,-0.257618 -0.263407,-0.683122 0,-0.471817 0.367612,-0.723646 0.367612,-0.251829 1.062312,-0.251829 h 0.448661 v -0.254723 q 0,-0.329983 -0.193937,-0.466028 -0.191043,-0.138941 -0.532604,-0.138941 -0.150518,0 -0.353139,0.03763 -0.202621,0.03473 -0.439977,0.118678 l -0.127362,-0.367612 q 0.280775,-0.104205 0.526815,-0.147624 0.246039,-0.04342 0.468922,-0.04342 0.570234,0 0.853903,0.266302 0.286564,0.263407 0.286564,0.717857 z m -1.259144,0.361823 q 0.225777,0 0.431293,-0.112888 0.205515,-0.115784 0.338666,-0.318405 v -0.784432 h -0.439977 q -0.503658,0 -0.712068,0.173675 -0.205515,0.173675 -0.205515,0.466028 0,0.283669 0.144729,0.431293 0.147624,0.144729 0.442872,0.144729 z m 3.736911,-3.97137 v 3.52271 q 0,0.225777 0.13894,0.321299 0.141835,0.09263 0.364718,0.09263 0.13894,0 0.263407,-0.02894 0.124467,-0.02895 0.248934,-0.07815 l 0.130256,0.356034 q -0.124467,0.06079 -0.30972,0.107099 -0.182359,0.04921 -0.413926,0.04921 -0.405242,0 -0.657071,-0.222883 -0.251828,-0.225777 -0.251828,-0.622336 v -3.111678 h -0.934951 v -0.38498 z m 3.473504,0 v 3.52271 q 0,0.225777 0.13894,0.321299 0.141835,0.09263 0.364718,0.09263 0.13894,0 0.263407,-0.02894 0.124467,-0.02895 0.248934,-0.07815 l 0.130256,0.356034 q -0.124467,0.06079 -0.30972,0.107099 -0.182359,0.04921 -0.413926,0.04921 -0.405242,0 -0.657071,-0.222883 -0.251828,-0.225777 -0.251828,-0.622336 v -3.111678 h -0.934951 v -0.38498 z m 2.77012,4.943951 v -5.389717 h 1.450187 v 0.419715 h -0.989948 v 4.556076 h 0.989948 v 0.413926 z"
         id="path54" />
      <path
         style="fill:#0400b4"
         d="m 55.447091,91.423477 q 0,0.341561 -0.17078,0.607863 -0.170781,0.263407 -0.494974,0.413925 -0.324194,0.147624 -0.790222,0.147624 -0.437082,0 -0.793116,-0.133151 -0.353139,-0.133151 -0.604968,-0.376296 l 0.298142,-0.335772 q 0.20841,0.193938 0.477606,0.309721 0.269197,0.112889 0.63102,0.112889 0.243145,0 0.45445,-0.07815 0.211304,-0.08105 0.341561,-0.243145 0.130256,-0.164991 0.130256,-0.41682 0,-0.193937 -0.07526,-0.329983 -0.07526,-0.136045 -0.266302,-0.24025 -0.191043,-0.1071 -0.532604,-0.208411 -0.393663,-0.115783 -0.683122,-0.260512 -0.286564,-0.147624 -0.445766,-0.361823 -0.156307,-0.2142 -0.156307,-0.529709 0,-0.298142 0.164991,-0.529709 0.164991,-0.231567 0.45445,-0.361823 0.292353,-0.133151 0.671544,-0.133151 0.413925,0 0.717857,0.118678 0.306825,0.115783 0.55576,0.335772 l -0.295248,0.327088 q -0.214199,-0.191043 -0.460239,-0.274986 -0.24604,-0.08684 -0.500763,-0.08684 -0.217094,0 -0.399453,0.06658 -0.179464,0.06368 -0.289458,0.193937 -0.1071,0.127362 -0.1071,0.327088 0,0.170781 0.09263,0.295248 0.09263,0.124467 0.312615,0.228672 0.219989,0.101311 0.599179,0.214199 0.309721,0.08973 0.573128,0.225778 0.266302,0.133151 0.428398,0.364718 0.162097,0.228672 0.162097,0.610757 z m 2.110156,-2.008842 q 0.431293,0 0.720751,0.196832 0.292353,0.193937 0.437083,0.549971 0.147623,0.356034 0.147623,0.83943 0,0.466028 -0.150518,0.824956 -0.150518,0.358929 -0.442871,0.564444 -0.289459,0.202621 -0.717857,0.202621 -0.428399,0 -0.720752,-0.196832 -0.292353,-0.196831 -0.442871,-0.552865 -0.147624,-0.358929 -0.147624,-0.836535 0,-0.471817 0.150518,-0.830746 0.150519,-0.358929 0.442872,-0.558655 0.295247,-0.202621 0.723646,-0.202621 z m 0,0.396558 q -0.393664,0 -0.596285,0.292353 -0.199726,0.289459 -0.199726,0.903111 0,0.602073 0.196832,0.894426 0.199726,0.292354 0.59339,0.292354 0.393663,0 0.590495,-0.292354 0.199726,-0.292353 0.199726,-0.900215 0,-0.607863 -0.196832,-0.897322 -0.196831,-0.292353 -0.5876,-0.292353 z m 4.321618,-0.396558 q 0.147624,0 0.280775,0.06368 0.136045,0.06368 0.222883,0.24604 0.08684,0.182359 0.08684,0.532603 v 2.269355 h -0.451555 v -2.191201 q 0,-0.286564 -0.03474,-0.413925 -0.03473,-0.127362 -0.199726,-0.127362 -0.136046,0 -0.272091,0.08684 -0.133151,0.08394 -0.260513,0.27788 v 2.367771 h -0.45445 v -2.191201 q 0,-0.286564 -0.03473,-0.413925 -0.03474,-0.127362 -0.199726,-0.127362 -0.141835,0 -0.274985,0.08684 -0.130257,0.08394 -0.257618,0.27788 v 2.367771 h -0.448661 v -3.047998 h 0.382085 l 0.02895,0.353139 q 0.124467,-0.176569 0.27788,-0.295247 0.156308,-0.121573 0.38498,-0.121573 0.173675,0 0.327088,0.08394 0.153413,0.08105 0.225777,0.318404 0.124468,-0.179464 0.280775,-0.289458 0.156308,-0.112889 0.390769,-0.112889 z m 1.846747,1.759908 q 0.01447,0.353139 0.136045,0.578917 0.121573,0.222883 0.321299,0.329982 0.199726,0.104205 0.434188,0.104205 0.234461,0 0.422609,-0.06947 0.191043,-0.06947 0.390769,-0.205515 l 0.228672,0.321299 q -0.214199,0.167886 -0.489185,0.263407 -0.272091,0.09552 -0.558654,0.09552 -0.442872,0 -0.755487,-0.199726 -0.312615,-0.199726 -0.477607,-0.55576 -0.162096,-0.358929 -0.162096,-0.830746 0,-0.463134 0.164991,-0.822062 0.164991,-0.358929 0.463134,-0.564444 0.298142,-0.205516 0.703384,-0.205516 0.384979,0 0.66286,0.182359 0.27788,0.179464 0.425504,0.515236 0.150518,0.332877 0.150518,0.796011 0,0.07815 -0.0029,0.147624 -0.0029,0.06658 -0.0087,0.118678 z m 0.827851,-1.360455 q -0.338667,0 -0.567339,0.24025 -0.225777,0.240251 -0.257618,0.743909 h 1.589127 q -0.0087,-0.489185 -0.214199,-0.735225 -0.205516,-0.248934 -0.549971,-0.248934 z m 4.752909,-1.273617 0.225778,3.985843 h -0.483396 l -0.124467,-2.081207 q -0.0087,-0.211304 -0.01737,-0.428398 -0.0087,-0.217094 -0.01158,-0.41682 -0.0029,-0.199727 -0.0029,-0.356034 0,-0.156308 0,-0.243145 l -0.671544,2.810641 H 67.717245 L 66.996494,89.00071 q 0.0029,0.08394 0.0058,0.248934 0.0029,0.162097 0.0029,0.367612 0.0029,0.205516 -0.0029,0.42261 -0.0029,0.214199 -0.01158,0.399452 l -0.1071,2.086996 h -0.471817 l 0.225777,-3.985843 h 0.70049 l 0.645492,2.729593 0.616547,-2.729593 z m 1.366246,2.634072 q 0.01447,0.353139 0.136045,0.578917 0.121573,0.222883 0.321299,0.329982 0.199727,0.104205 0.434188,0.104205 0.234461,0 0.422609,-0.06947 0.191043,-0.06947 0.390769,-0.205515 l 0.228672,0.321299 q -0.214199,0.167886 -0.489184,0.263407 -0.272091,0.09552 -0.558655,0.09552 -0.442872,0 -0.755487,-0.199726 -0.312615,-0.199726 -0.477606,-0.55576 -0.162097,-0.358929 -0.162097,-0.830746 0,-0.463134 0.164991,-0.822062 0.164992,-0.358929 0.463134,-0.564444 0.298142,-0.205516 0.703384,-0.205516 0.38498,0 0.66286,0.182359 0.27788,0.179464 0.425504,0.515236 0.150518,0.332877 0.150518,0.796011 0,0.07815 -0.0029,0.147624 -0.0029,0.06658 -0.0087,0.118678 z m 0.827851,-1.360455 q -0.338666,0 -0.567339,0.24025 -0.225777,0.240251 -0.257618,0.743909 h 1.589127 q -0.0087,-0.489185 -0.214199,-0.735225 -0.205515,-0.248934 -0.549971,-0.248934 z m 4.683443,2.558813 q -0.156307,0.104205 -0.37919,0.162097 -0.222883,0.05789 -0.437082,0.05789 -0.49208,0 -0.758382,-0.257618 -0.266301,-0.257618 -0.266301,-0.66286 v -1.817799 h -0.70049 v -0.376296 h 0.70049 V 88.78651 l 0.48629,-0.05789 v 0.749697 h 1.053629 l -0.05789,0.376296 h -0.995737 v 1.81201 q 0,0.254724 0.133151,0.387874 0.136045,0.133151 0.44866,0.133151 0.170781,0 0.31551,-0.04052 0.144729,-0.04052 0.269196,-0.104205 z m 1.539921,-4.168202 v 1.690437 q 0.179464,-0.24025 0.439977,-0.358928 0.263407,-0.121573 0.532603,-0.121573 0.445766,0 0.651282,0.237356 0.205515,0.237356 0.205515,0.659965 v 2.214358 h -0.48629 v -2.202779 q 0,-0.274986 -0.127361,-0.399453 -0.127362,-0.127362 -0.399453,-0.127362 -0.173675,0 -0.329983,0.07815 -0.156307,0.07815 -0.280775,0.193937 -0.124467,0.115784 -0.205515,0.237356 v 2.220147 h -0.48629 v -4.269513 z m 4.147941,1.209936 q 0.431293,0 0.720752,0.196832 0.292353,0.193937 0.437082,0.549971 0.147624,0.356034 0.147624,0.83943 0,0.466028 -0.150518,0.824956 -0.150519,0.358929 -0.442872,0.564444 -0.289458,0.202621 -0.717857,0.202621 -0.428398,0 -0.720751,-0.196832 -0.292354,-0.196831 -0.442872,-0.552865 -0.147624,-0.358929 -0.147624,-0.836535 0,-0.471817 0.150519,-0.830746 0.150518,-0.358929 0.442871,-0.558655 0.295248,-0.202621 0.723646,-0.202621 z m 0,0.396558 q -0.393663,0 -0.596284,0.292353 -0.199726,0.289459 -0.199726,0.903111 0,0.602073 0.196831,0.894426 0.199727,0.292354 0.59339,0.292354 0.393664,0 0.590495,-0.292354 0.199727,-0.292353 0.199727,-0.900215 0,-0.607863 -0.196832,-0.897322 -0.196832,-0.292353 -0.587601,-0.292353 z m 4.136367,-1.620967 0.48629,0.06079 v 4.275302 h -0.425504 l -0.04631,-0.402347 q -0.17078,0.243145 -0.393663,0.356033 -0.219989,0.112889 -0.471818,0.112889 -0.396558,0 -0.654176,-0.199726 -0.257618,-0.199726 -0.382085,-0.55576 -0.124467,-0.358929 -0.124467,-0.830746 0,-0.457345 0.141834,-0.816273 0.141835,-0.361823 0.408137,-0.567339 0.269196,-0.20841 0.645492,-0.20841 0.263407,0 0.463134,0.09263 0.199726,0.08973 0.353139,0.266302 z m -0.688911,1.615178 q -0.382085,0 -0.587601,0.298142 -0.205515,0.298143 -0.205515,0.903111 0,0.393663 0.08394,0.659965 0.08394,0.266302 0.246039,0.399453 0.164992,0.133151 0.402348,0.133151 0.260512,0 0.442871,-0.147624 0.185254,-0.147624 0.306826,-0.332877 V 90.196173 Q 85.883674,90.01092 85.707104,89.909609 85.530535,89.805404 85.31923,89.805404 Z"
         id="path55" />
      <path
         d="m 89.484539,87.805246 v 5.389717 H 88.034352 V 92.783932 H 89.0243 v -4.558971 h -0.989948 v -0.419715 z m 2.295407,2.694858 q 0,0.451556 0.07815,0.810484 0.07815,0.356034 0.231567,0.654176 0.153413,0.295248 0.384979,0.56155 0.234462,0.269196 0.544182,0.544182 l -0.254723,0.266301 q -0.468923,-0.384979 -0.804695,-0.787327 -0.332877,-0.402347 -0.512341,-0.897321 -0.17657,-0.494974 -0.17657,-1.152045 0,-0.659965 0.17657,-1.154939 0.179464,-0.494974 0.512341,-0.897321 0.335772,-0.402347 0.804695,-0.784433 l 0.254723,0.266302 q -0.312615,0.27788 -0.547076,0.547077 -0.231567,0.266302 -0.38498,0.561549 -0.153413,0.292353 -0.231567,0.651282 -0.07526,0.356034 -0.07526,0.810483 z"
         id="path56" />
      <path
         style="fill:#bc4500"
         d="m 95.968412,89.414635 q 0.405241,0 0.645492,0.196832 0.243145,0.196832 0.350245,0.55576 0.107099,0.356034 0.107099,0.833641 0,0.460239 -0.130256,0.822062 -0.127362,0.358928 -0.387874,0.564444 -0.260513,0.205515 -0.657071,0.205515 -0.500763,0 -0.804695,-0.353139 v 1.453081 l -0.48629,0.06079 v -4.275302 h 0.413926 l 0.04052,0.425504 q 0.167886,-0.234461 0.399453,-0.361823 0.234461,-0.127362 0.509447,-0.127362 z m -0.115784,0.390769 q -0.251829,0 -0.445766,0.153413 -0.191043,0.150519 -0.31551,0.335772 v 1.510973 q 0.118678,0.17657 0.298143,0.280775 0.182358,0.10131 0.399452,0.10131 0.379191,0 0.570233,-0.289458 0.191043,-0.289459 0.191043,-0.900216 0,-0.399453 -0.07526,-0.66286 -0.07526,-0.266302 -0.228672,-0.396558 -0.153413,-0.133151 -0.393664,-0.133151 z m 4.408452,2.055155 q 0,0.182359 0.0608,0.266302 0.0608,0.08394 0.18815,0.124467 l -0.11868,0.341561 q -0.19683,-0.02605 -0.34446,-0.124467 -0.147621,-0.10131 -0.214196,-0.303931 -0.164992,0.211304 -0.411031,0.321299 -0.24604,0.107099 -0.544182,0.107099 -0.457345,0 -0.720752,-0.257618 -0.263407,-0.257618 -0.263407,-0.683122 0,-0.471817 0.367612,-0.723646 0.367612,-0.251829 1.062313,-0.251829 h 0.44866 v -0.254723 q 0,-0.329983 -0.193937,-0.466028 -0.191042,-0.138941 -0.532603,-0.138941 -0.150519,0 -0.35314,0.03763 -0.202621,0.03473 -0.439977,0.118678 l -0.127361,-0.367612 q 0.280774,-0.104205 0.526814,-0.147624 0.24604,-0.04342 0.468923,-0.04342 0.570233,0 0.853902,0.266302 0.286562,0.263407 0.286562,0.717857 z m -1.259142,0.361823 q 0.225777,0 0.431293,-0.112888 0.205515,-0.115784 0.338666,-0.318405 V 91.006657 H 99.33192 q -0.503657,0 -0.712067,0.173675 -0.205516,0.173675 -0.205516,0.466028 0,0.283669 0.144729,0.431293 0.147624,0.144729 0.442872,0.144729 z m 2.579072,0.303932 v -0.373402 h 0.47472 v -2.301194 h -0.47472 v -0.373402 h 0.84522 l 0.0897,0.720752 q 0.17656,-0.376296 0.42839,-0.581812 0.25183,-0.205515 0.66576,-0.205515 0.12736,0 0.22578,0.02026 0.10131,0.01737 0.20551,0.04631 l -0.14183,0.434188 q -0.0955,-0.02605 -0.17368,-0.03763 -0.0781,-0.01447 -0.17946,-0.01447 -0.35025,0 -0.60208,0.248935 -0.25183,0.248934 -0.40234,0.752592 v 1.290984 h 0.61944 v 0.373402 z m 1.99148,-2.017526 v -0.66286 l 0.0492,-0.367612 h 0.41971 l -0.0695,1.030472 z m 3.6356,1.351771 q 0,0.182359 0.0608,0.266302 0.0608,0.08394 0.18815,0.124467 l -0.11868,0.341561 q -0.19683,-0.02605 -0.34445,-0.124467 -0.14762,-0.10131 -0.2142,-0.303931 -0.16499,0.211304 -0.41103,0.321299 -0.24604,0.107099 -0.54418,0.107099 -0.45735,0 -0.72075,-0.257618 -0.26341,-0.257618 -0.26341,-0.683122 0,-0.471817 0.36761,-0.723646 0.36761,-0.251829 1.06231,-0.251829 h 0.44866 v -0.254723 q 0,-0.329983 -0.19393,-0.466028 -0.19105,-0.138941 -0.53261,-0.138941 -0.15052,0 -0.35314,0.03763 -0.20262,0.03473 -0.43997,0.118678 l -0.12737,-0.367612 q 0.28078,-0.104205 0.52682,-0.147624 0.24604,-0.04342 0.46892,-0.04342 0.57024,0 0.8539,0.266302 0.28657,0.263407 0.28657,0.717857 z m -1.25915,0.361823 q 0.22578,0 0.4313,-0.112888 0.20551,-0.115784 0.33866,-0.318405 v -0.784432 h -0.43997 q -0.50366,0 -0.71207,0.173675 -0.20552,0.173675 -0.20552,0.466028 0,0.283669 0.14473,0.431293 0.14763,0.144729 0.44287,0.144729 z m 4.55898,-2.807747 q 0.14763,0 0.28078,0.06368 0.13604,0.06368 0.22288,0.24604 0.0868,0.182359 0.0868,0.532603 v 2.269355 h -0.45156 v -2.191201 q 0,-0.286564 -0.0347,-0.413925 -0.0347,-0.127362 -0.19973,-0.127362 -0.13604,0 -0.27209,0.08684 -0.13315,0.08394 -0.26051,0.27788 v 2.367771 h -0.45445 v -2.191201 q 0,-0.286564 -0.0347,-0.413925 -0.0347,-0.127362 -0.19972,-0.127362 -0.14184,0 -0.27499,0.08684 -0.13025,0.08394 -0.25762,0.27788 v 2.367771 h -0.44866 v -3.047998 h 0.38209 l 0.0289,0.353139 q 0.12447,-0.176569 0.27788,-0.295247 0.15631,-0.121573 0.38498,-0.121573 0.17368,0 0.32709,0.08394 0.15342,0.08105 0.22578,0.318404 0.12447,-0.179464 0.28078,-0.289458 0.1563,-0.112889 0.39076,-0.112889 z m 3.04511,-0.874164 v 3.870059 h -0.48629 v -3.343245 l -0.91469,0.55576 -0.21131,-0.34735 1.18678,-0.735224 z m 0.83364,3.589285 v 0.396558 h -2.3012 v -0.396558 z"
         id="path57" />
      <path
         d="m 116.60103,91.573995 q 0.19972,0 0.33287,0.136046 0.13605,0.136045 0.13605,0.327088 0,0.104205 -0.0261,0.211305 -0.0232,0.107099 -0.0868,0.243145 l -0.46892,1.073891 h -0.43998 l 0.27788,-1.143361 q -0.0868,-0.06368 -0.13894,-0.164992 -0.0492,-0.104205 -0.0492,-0.219988 0,-0.193937 0.13316,-0.327088 0.13315,-0.136046 0.32998,-0.136046 z"
         id="path58" />
      <path
         style="fill:#bc4500"
         d="m 123.75644,89.414635 q 0.40525,0 0.6455,0.196832 0.24314,0.196832 0.35024,0.55576 0.1071,0.356034 0.1071,0.833641 0,0.460239 -0.13026,0.822062 -0.12736,0.358928 -0.38787,0.564444 -0.26051,0.205515 -0.65707,0.205515 -0.50076,0 -0.8047,-0.353139 v 1.453081 l -0.48629,0.06079 v -4.275302 h 0.41393 l 0.0405,0.425504 q 0.16789,-0.234461 0.39946,-0.361823 0.23446,-0.127362 0.50944,-0.127362 z m -0.11578,0.390769 q -0.25183,0 -0.44577,0.153413 -0.19104,0.150519 -0.31551,0.335772 v 1.510973 q 0.11868,0.17657 0.29815,0.280775 0.18236,0.10131 0.39945,0.10131 0.37919,0 0.57023,-0.289458 0.19105,-0.289459 0.19105,-0.900216 0,-0.399453 -0.0753,-0.66286 -0.0753,-0.266302 -0.22868,-0.396558 -0.15341,-0.133151 -0.39366,-0.133151 z m 4.40845,2.055155 q 0,0.182359 0.0608,0.266302 0.0608,0.08394 0.18815,0.124467 l -0.11868,0.341561 q -0.19683,-0.02605 -0.34445,-0.124467 -0.14763,-0.10131 -0.2142,-0.303931 -0.165,0.211304 -0.41103,0.321299 -0.24604,0.107099 -0.54419,0.107099 -0.45734,0 -0.72075,-0.257618 -0.26341,-0.257618 -0.26341,-0.683122 0,-0.471817 0.36762,-0.723646 0.36761,-0.251829 1.06231,-0.251829 h 0.44866 v -0.254723 q 0,-0.329983 -0.19394,-0.466028 -0.19104,-0.138941 -0.5326,-0.138941 -0.15052,0 -0.35314,0.03763 -0.20262,0.03473 -0.43998,0.118678 l -0.12736,-0.367612 q 0.28078,-0.104205 0.52682,-0.147624 0.24604,-0.04342 0.46892,-0.04342 0.57023,0 0.8539,0.266302 0.28656,0.263407 0.28656,0.717857 z m -1.25914,0.361823 q 0.22578,0 0.43129,-0.112888 0.20552,-0.115784 0.33867,-0.318405 v -0.784432 h -0.43998 q -0.50365,0 -0.71206,0.173675 -0.20552,0.173675 -0.20552,0.466028 0,0.283669 0.14473,0.431293 0.14762,0.144729 0.44287,0.144729 z m 2.57908,0.303932 v -0.373402 h 0.47471 v -2.301194 h -0.47471 v -0.373402 h 0.84522 l 0.0897,0.720752 q 0.17657,-0.376296 0.4284,-0.581812 0.25182,-0.205515 0.66575,-0.205515 0.12736,0 0.22578,0.02026 0.10131,0.01737 0.20551,0.04631 l -0.14183,0.434188 q -0.0955,-0.02605 -0.17368,-0.03763 -0.0781,-0.01447 -0.17946,-0.01447 -0.35025,0 -0.60207,0.248935 -0.25183,0.248934 -0.40235,0.752592 v 1.290984 h 0.61944 v 0.373402 z m 1.99147,-2.017526 v -0.66286 l 0.0492,-0.367612 h 0.41971 l -0.0695,1.030472 z m 3.63561,1.351771 q 0,0.182359 0.0608,0.266302 0.0608,0.08394 0.18815,0.124467 l -0.11868,0.341561 q -0.19683,-0.02605 -0.34445,-0.124467 -0.14762,-0.10131 -0.2142,-0.303931 -0.16499,0.211304 -0.41103,0.321299 -0.24604,0.107099 -0.54418,0.107099 -0.45735,0 -0.72075,-0.257618 -0.26341,-0.257618 -0.26341,-0.683122 0,-0.471817 0.36761,-0.723646 0.36761,-0.251829 1.06231,-0.251829 h 0.44866 v -0.254723 q 0,-0.329983 -0.19393,-0.466028 -0.19105,-0.138941 -0.53261,-0.138941 -0.15052,0 -0.35314,0.03763 -0.20262,0.03473 -0.43997,0.118678 l -0.12737,-0.367612 q 0.28078,-0.104205 0.52682,-0.147624 0.24604,-0.04342 0.46892,-0.04342 0.57024,0 0.8539,0.266302 0.28657,0.263407 0.28657,0.717857 z m -1.25915,0.361823 q 0.22578,0 0.4313,-0.112888 0.20551,-0.115784 0.33866,-0.318405 v -0.784432 h -0.43997 q -0.50366,0 -0.71207,0.173675 -0.20552,0.173675 -0.20552,0.466028 0,0.283669 0.14473,0.431293 0.14763,0.144729 0.44287,0.144729 z m 4.55898,-2.807747 q 0.14762,0 0.28077,0.06368 0.13605,0.06368 0.22288,0.24604 0.0868,0.182359 0.0868,0.532603 v 2.269355 h -0.45155 v -2.191201 q 0,-0.286564 -0.0347,-0.413925 -0.0347,-0.127362 -0.19972,-0.127362 -0.13605,0 -0.2721,0.08684 -0.13315,0.08394 -0.26051,0.27788 v 2.367771 h -0.45445 v -2.191201 q 0,-0.286564 -0.0347,-0.413925 -0.0347,-0.127362 -0.19973,-0.127362 -0.14183,0 -0.27499,0.08684 -0.13025,0.08394 -0.25761,0.27788 v 2.367771 h -0.44866 v -3.047998 h 0.38208 l 0.029,0.353139 q 0.12446,-0.176569 0.27788,-0.295247 0.1563,-0.121573 0.38498,-0.121573 0.17367,0 0.32709,0.08394 0.15341,0.08105 0.22577,0.318404 0.12447,-0.179464 0.28078,-0.289458 0.15631,-0.112889 0.39077,-0.112889 z m 2.44303,-0.937845 q 0.37629,0 0.6426,0.144729 0.26919,0.144729 0.41392,0.396558 0.14473,0.251829 0.14473,0.570233 0,0.274986 -0.0955,0.538393 -0.0955,0.260513 -0.30683,0.549971 -0.20841,0.286564 -0.54997,0.636809 -0.33866,0.350245 -0.83364,0.798905 h 1.87859 l -0.0608,0.413926 h -2.37066 v -0.396558 q 0.45155,-0.431293 0.76706,-0.755487 0.3184,-0.324193 0.52392,-0.567339 0.20841,-0.246039 0.32419,-0.445766 0.11868,-0.199726 0.165,-0.37919 0.0463,-0.182359 0.0463,-0.376296 0,-0.335772 -0.19104,-0.529709 -0.18815,-0.193937 -0.52103,-0.193937 -0.29525,0 -0.48339,0.10131 -0.18815,0.101311 -0.3763,0.324194 l -0.33577,-0.260513 q 0.23735,-0.289459 0.52681,-0.428399 0.28946,-0.141834 0.69181,-0.141834 z"
         id="path59" />
      <path
         d="m 144.38906,91.573995 q 0.19973,0 0.33288,0.136046 0.13604,0.136045 0.13604,0.327088 0,0.104205 -0.026,0.211305 -0.0231,0.107099 -0.0868,0.243145 l -0.46892,1.073891 h -0.43998 l 0.27788,-1.143361 q -0.0868,-0.06368 -0.13894,-0.164992 -0.0492,-0.104205 -0.0492,-0.219988 0,-0.193937 0.13315,-0.327088 0.13315,-0.136046 0.32998,-0.136046 z"
         id="path60" />
      <path
         style="fill:#bc4500"
         d="m 151.54448,89.414635 q 0.40524,0 0.64549,0.196832 0.24314,0.196832 0.35024,0.55576 0.1071,0.356034 0.1071,0.833641 0,0.460239 -0.13025,0.822062 -0.12736,0.358928 -0.38788,0.564444 -0.26051,0.205515 -0.65707,0.205515 -0.50076,0 -0.80469,-0.353139 v 1.453081 l -0.48629,0.06079 v -4.275302 h 0.41392 l 0.0405,0.425504 q 0.16788,-0.234461 0.39945,-0.361823 0.23446,-0.127362 0.50945,-0.127362 z m -0.11579,0.390769 q -0.25183,0 -0.44576,0.153413 -0.19105,0.150519 -0.31551,0.335772 v 1.510973 q 0.11868,0.17657 0.29814,0.280775 0.18236,0.10131 0.39945,0.10131 0.37919,0 0.57024,-0.289458 0.19104,-0.289459 0.19104,-0.900216 0,-0.399453 -0.0753,-0.66286 -0.0753,-0.266302 -0.22867,-0.396558 -0.15342,-0.133151 -0.39367,-0.133151 z m 4.40846,2.055155 q 0,0.182359 0.0608,0.266302 0.0608,0.08394 0.18815,0.124467 l -0.11868,0.341561 q -0.19683,-0.02605 -0.34445,-0.124467 -0.14763,-0.10131 -0.2142,-0.303931 -0.16499,0.211304 -0.41103,0.321299 -0.24604,0.107099 -0.54418,0.107099 -0.45735,0 -0.72076,-0.257618 -0.2634,-0.257618 -0.2634,-0.683122 0,-0.471817 0.36761,-0.723646 0.36761,-0.251829 1.06231,-0.251829 h 0.44866 v -0.254723 q 0,-0.329983 -0.19393,-0.466028 -0.19105,-0.138941 -0.53261,-0.138941 -0.15052,0 -0.35314,0.03763 -0.20262,0.03473 -0.43997,0.118678 l -0.12737,-0.367612 q 0.28078,-0.104205 0.52682,-0.147624 0.24604,-0.04342 0.46892,-0.04342 0.57023,0 0.8539,0.266302 0.28657,0.263407 0.28657,0.717857 z m -1.25915,0.361823 q 0.22578,0 0.4313,-0.112888 0.20551,-0.115784 0.33866,-0.318405 v -0.784432 h -0.43997 q -0.50366,0 -0.71207,0.173675 -0.20552,0.173675 -0.20552,0.466028 0,0.283669 0.14473,0.431293 0.14763,0.144729 0.44287,0.144729 z m 2.57908,0.303932 v -0.373402 h 0.47471 v -2.301194 h -0.47471 v -0.373402 h 0.84522 l 0.0897,0.720752 q 0.17657,-0.376296 0.4284,-0.581812 0.25183,-0.205515 0.66575,-0.205515 0.12736,0 0.22578,0.02026 0.10131,0.01737 0.20552,0.04631 l -0.14184,0.434188 q -0.0955,-0.02605 -0.17367,-0.03763 -0.0782,-0.01447 -0.17947,-0.01447 -0.35024,0 -0.60207,0.248935 -0.25183,0.248934 -0.40235,0.752592 v 1.290984 h 0.61944 v 0.373402 z m 1.99147,-2.017526 v -0.66286 l 0.0492,-0.367612 h 0.41972 l -0.0695,1.030472 z m 3.6356,1.351771 q 0,0.182359 0.0608,0.266302 0.0608,0.08394 0.18815,0.124467 l -0.11868,0.341561 q -0.19683,-0.02605 -0.34446,-0.124467 -0.14762,-0.10131 -0.2142,-0.303931 -0.16499,0.211304 -0.41103,0.321299 -0.24604,0.107099 -0.54418,0.107099 -0.45734,0 -0.72075,-0.257618 -0.26341,-0.257618 -0.26341,-0.683122 0,-0.471817 0.36762,-0.723646 0.36761,-0.251829 1.06231,-0.251829 h 0.44866 v -0.254723 q 0,-0.329983 -0.19394,-0.466028 -0.19104,-0.138941 -0.5326,-0.138941 -0.15052,0 -0.35314,0.03763 -0.20262,0.03473 -0.43998,0.118678 l -0.12736,-0.367612 q 0.28077,-0.104205 0.52681,-0.147624 0.24604,-0.04342 0.46893,-0.04342 0.57023,0 0.8539,0.266302 0.28656,0.263407 0.28656,0.717857 z m -1.25914,0.361823 q 0.22578,0 0.43129,-0.112888 0.20552,-0.115784 0.33867,-0.318405 v -0.784432 h -0.43998 q -0.50366,0 -0.71207,0.173675 -0.20551,0.173675 -0.20551,0.466028 0,0.283669 0.14473,0.431293 0.14762,0.144729 0.44287,0.144729 z m 4.55898,-2.807747 q 0.14762,0 0.28077,0.06368 0.13605,0.06368 0.22289,0.24604 0.0868,0.182359 0.0868,0.532603 v 2.269355 h -0.45155 v -2.191201 q 0,-0.286564 -0.0347,-0.413925 -0.0347,-0.127362 -0.19972,-0.127362 -0.13605,0 -0.27209,0.08684 -0.13315,0.08394 -0.26052,0.27788 v 2.367771 h -0.45445 v -2.191201 q 0,-0.286564 -0.0347,-0.413925 -0.0347,-0.127362 -0.19973,-0.127362 -0.14183,0 -0.27498,0.08684 -0.13026,0.08394 -0.25762,0.27788 v 2.367771 h -0.44866 v -3.047998 h 0.38208 l 0.029,0.353139 q 0.12447,-0.176569 0.27788,-0.295247 0.15631,-0.121573 0.38498,-0.121573 0.17367,0 0.32709,0.08394 0.15341,0.08105 0.22578,0.318404 0.12446,-0.179464 0.28077,-0.289458 0.15631,-0.112889 0.39077,-0.112889 z m 2.43723,-0.937845 q 0.3763,0 0.64839,0.136045 0.27499,0.133151 0.4255,0.361823 0.15052,0.225778 0.15052,0.497869 0,0.24025 -0.1071,0.437082 -0.1071,0.196832 -0.28367,0.324194 -0.17657,0.127361 -0.38787,0.167886 0.23446,0.01737 0.43998,0.133151 0.20551,0.112888 0.33577,0.324193 0.13025,0.20841 0.13025,0.518131 0,0.344455 -0.17367,0.622335 -0.17368,0.274986 -0.48629,0.434188 -0.30972,0.159202 -0.72365,0.159202 -0.33287,0 -0.66575,-0.127361 -0.32998,-0.127362 -0.55866,-0.405242 l 0.32709,-0.266302 q 0.17078,0.199726 0.40524,0.298142 0.23736,0.09842 0.4805,0.09842 0.41682,0 0.65129,-0.217094 0.23446,-0.219988 0.23446,-0.596284 0,-0.28367 -0.11,-0.448661 -0.1071,-0.164991 -0.29235,-0.234461 -0.18525,-0.07236 -0.42261,-0.07236 h -0.33577 l 0.0608,-0.38498 h 0.23446 q 0.19393,0 0.36471,-0.07236 0.17368,-0.07526 0.28367,-0.231567 0.11,-0.156308 0.11,-0.390769 0,-0.329983 -0.21999,-0.503658 -0.21999,-0.173675 -0.5326,-0.173675 -0.26052,0 -0.45445,0.09263 -0.19394,0.08973 -0.39077,0.274985 l -0.2692,-0.298142 q 0.25472,-0.24025 0.54129,-0.34735 0.28656,-0.109994 0.59049,-0.109994 z"
         id="path61" />
      <path
         d="m 172.17709,91.573995 q 0.19973,0 0.33288,0.136046 0.13605,0.136045 0.13605,0.327088 0,0.104205 -0.0261,0.211305 -0.0231,0.107099 -0.0868,0.243145 l -0.46893,1.073891 h -0.43997 l 0.27788,-1.143361 q -0.0868,-0.06368 -0.13894,-0.164992 -0.0492,-0.104205 -0.0492,-0.219988 0,-0.193937 0.13315,-0.327088 0.13315,-0.136046 0.32998,-0.136046 z m 9.91396,0.506553 q 0,-0.141835 0.0666,-0.254724 0.0666,-0.115783 0.18236,-0.182359 0.11288,-0.06947 0.25761,-0.06947 0.14763,0 0.26341,0.06947 0.11578,0.06658 0.18236,0.182359 0.0666,0.112889 0.0666,0.254724 0,0.141834 -0.0666,0.260512 -0.0666,0.115784 -0.18236,0.185254 -0.11578,0.06658 -0.26341,0.06658 -0.14473,0 -0.25761,-0.06658 -0.11579,-0.06947 -0.18236,-0.185254 -0.0666,-0.118678 -0.0666,-0.260512 z m 2.31567,0 q 0,-0.141835 0.0666,-0.254724 0.0666,-0.115783 0.17947,-0.182359 0.11578,-0.06947 0.26051,-0.06947 0.14763,0 0.26341,0.06947 0.11578,0.06658 0.18236,0.182359 0.0666,0.112889 0.0666,0.254724 0,0.141834 -0.0666,0.260512 -0.0666,0.115784 -0.18236,0.185254 -0.11578,0.06658 -0.26341,0.06658 -0.14473,0 -0.26051,-0.06658 -0.11289,-0.06947 -0.17947,-0.185254 -0.0666,-0.118678 -0.0666,-0.260512 z m -4.63134,0 q 0,-0.141835 0.0666,-0.254724 0.0666,-0.115783 0.18236,-0.182359 0.11289,-0.06947 0.25762,-0.06947 0.14762,0 0.2634,0.06947 0.11579,0.06658 0.18236,0.182359 0.0666,0.112889 0.0666,0.254724 0,0.141834 -0.0666,0.260512 -0.0666,0.115784 -0.18236,0.185254 -0.11578,0.06658 -0.2634,0.06658 -0.14473,0 -0.25762,-0.06658 -0.11579,-0.06947 -0.18236,-0.185254 -0.0666,-0.118678 -0.0666,-0.260512 z m 10.27579,-1.580444 q 0,-0.454449 -0.0782,-0.810483 -0.0752,-0.358929 -0.22867,-0.651282 -0.15341,-0.295247 -0.38787,-0.561549 -0.23157,-0.269197 -0.54418,-0.547077 l 0.25472,-0.266302 q 0.47182,0.382086 0.80469,0.784433 0.33288,0.402347 0.50945,0.897321 0.17947,0.494974 0.17947,1.154939 0,0.657071 -0.17947,1.152045 -0.17657,0.494974 -0.50945,0.897321 -0.33287,0.402348 -0.80469,0.787327 l -0.25472,-0.266301 q 0.30972,-0.274986 0.54128,-0.544182 0.23446,-0.266302 0.38788,-0.56155 0.15341,-0.298142 0.23156,-0.654176 0.0782,-0.358928 0.0782,-0.810484 z"
         id="path62" />
    </g>
    <path
       style="fill:#000000;fill-opacity:1;fill-rule:nonzero;stroke:#000000;stroke-width:0.265;stroke-dasharray:none;stroke-opacity:1"
       d="m 104.28947,93.753617 v 3.491611"
       id="path10" />
    <g
       id="text10"
       style="font-size:3.175px;font-family:'Fira Code';-inkscape-font-specification:'Fira Code';stroke:#000000;stroke-width:0.065"
       aria-label="NoEscape&#10;Escape">
      <path
         style="font-weight:300;-inkscape-font-specification:'Fira Code Light'"
         d="M 98.505086,100.7171 97.65842,98.699756 q -0.0016,0.02605 0.0016,0.10909 0.0033,0.08141 0.0081,0.198641 0.0065,0.11723 0.0098,0.249115 0.0049,0.130256 0.0049,0.255628 v 1.20487 h -0.205154 v -2.237152 h 0.297962 l 0.869461,2.030372 q 0.0033,-0.0293 -0.0033,-0.15142 -0.0065,-0.12212 -0.01465,-0.30122 -0.0065,-0.179104 -0.0065,-0.379373 v -1.198359 h 0.205154 v 2.237152 z m 1.605414,-1.740549 q 0.23446,0 0.39077,0.10909 0.1563,0.109089 0.23283,0.30773 0.0782,0.198641 0.0782,0.468923 0,0.253996 -0.0798,0.454266 -0.0798,0.20027 -0.23772,0.3175 -0.1563,0.11561 -0.38914,0.11561 -0.234458,0 -0.392394,-0.11072 -0.156308,-0.11235 -0.23609,-0.31099 -0.07815,-0.20027 -0.07815,-0.462409 0,-0.262141 0.07978,-0.46241 0.07978,-0.20027 0.237718,-0.312616 0.159565,-0.113974 0.394026,-0.113974 z m 0,0.177474 q -0.240976,0 -0.366348,0.174218 -0.123744,0.174218 -0.123744,0.537308 0,0.354949 0.122116,0.530799 0.122115,0.17421 0.363086,0.17421 0.24098,0 0.36309,-0.17421 0.12212,-0.17585 0.12212,-0.534056 0,-0.359833 -0.12212,-0.534051 -0.12048,-0.174218 -0.3582,-0.174218 z m 1.62006,-0.488461 v 0.818987 h 0.84667 v 0.1905 h -0.84667 v 0.861319 h 1.04368 v 0.18073 h -1.25209 v -2.237152 h 1.21464 l -0.0277,0.185616 z m 2.21274,1.900116 q 0.21818,0 0.34192,-0.083 0.12537,-0.0847 0.12537,-0.22144 0,-0.0847 -0.0277,-0.14653 -0.026,-0.0635 -0.1156,-0.11235 -0.0879,-0.05047 -0.27191,-0.09444 -0.18399,-0.04559 -0.31913,-0.100949 -0.13351,-0.05536 -0.20678,-0.14491 -0.0733,-0.08955 -0.0733,-0.237718 0,-0.141654 0.0798,-0.240974 0.0814,-0.100949 0.22144,-0.153051 0.14165,-0.05373 0.31913,-0.05373 0.20026,0 0.34843,0.05373 0.1498,0.05373 0.25074,0.130256 l -0.0944,0.149795 q -0.0944,-0.06676 -0.21004,-0.110718 -0.1156,-0.04396 -0.29308,-0.04396 -0.22632,0 -0.3175,0.07164 -0.0912,0.07164 -0.0912,0.180731 0,0.08467 0.044,0.140026 0.0456,0.05373 0.14816,0.09606 0.10258,0.04071 0.2768,0.08792 0.1677,0.04396 0.29307,0.105833 0.12538,0.06187 0.19539,0.161193 0.07,0.09932 0.07,0.257256 0,0.18073 -0.10258,0.28982 -0.10094,0.10746 -0.26051,0.15631 -0.15956,0.0472 -0.33215,0.0472 -0.22632,0 -0.38263,-0.0668 -0.15468,-0.0668 -0.25726,-0.15631 l 0.12537,-0.14816 q 0.10095,0.0847 0.23284,0.13676 0.13188,0.0505 0.28331,0.0505 z m 2.1362,-0.002 q 0.13677,0 0.25237,-0.0423 0.11723,-0.0423 0.21167,-0.10909 l 0.10583,0.13677 q -0.11234,0.0944 -0.26865,0.14816 -0.15631,0.0521 -0.29308,0.0521 -0.24911,0 -0.42333,-0.10747 -0.17259,-0.10909 -0.26377,-0.30773 -0.0896,-0.19864 -0.0896,-0.465663 0,-0.254 0.0896,-0.455897 0.0912,-0.201898 0.26377,-0.319128 0.17422,-0.117231 0.42496,-0.117231 0.15468,0 0.29471,0.04885 0.14165,0.04885 0.26051,0.14491 l -0.10746,0.14491 q -0.1156,-0.07978 -0.22958,-0.118859 -0.11235,-0.04071 -0.22795,-0.04071 -0.23609,0 -0.39077,0.179103 -0.15305,0.179102 -0.15305,0.534051 0,0.239344 0.07,0.394024 0.07,0.15305 0.19213,0.22795 0.12375,0.0733 0.28168,0.0733 z m 2.38207,-0.18399 q 0,0.10421 0.0358,0.15305 0.0358,0.0472 0.11072,0.07 l -0.0554,0.14816 q -0.0977,-0.0147 -0.17422,-0.0716 -0.0765,-0.057 -0.10746,-0.17421 -0.0895,0.11885 -0.22469,0.18235 -0.13352,0.0619 -0.30285,0.0619 -0.254,0 -0.39891,-0.14329 -0.14491,-0.14328 -0.14491,-0.38262 0,-0.260517 0.2019,-0.398914 0.20352,-0.138398 0.59103,-0.138398 h 0.25889 v -0.166077 q 0,-0.200269 -0.1156,-0.280051 -0.11398,-0.08141 -0.31262,-0.08141 -0.0863,0 -0.19538,0.01954 -0.10909,0.01954 -0.24261,0.06676 l -0.0586,-0.166077 q 0.15468,-0.05699 0.28005,-0.07978 0.127,-0.0228 0.24586,-0.0228 0.30122,0 0.45427,0.148166 0.15468,0.146539 0.15468,0.389141 z m -0.67896,0.20841 q 0.14002,0 0.26214,-0.0684 0.12211,-0.0684 0.20678,-0.1905 v -0.488462 h -0.28331 q -0.30447,0 -0.42496,0.107461 -0.12049,0.105831 -0.12049,0.281681 0,0.17747 0.0879,0.26865 0.0879,0.0896 0.27191,0.0896 z m 2.18179,-1.611919 q 0.22958,0 0.36472,0.110718 0.13514,0.110718 0.19376,0.310987 0.0586,0.198641 0.0586,0.464038 0,0.257256 -0.0716,0.457526 -0.07,0.20027 -0.21655,0.31587 -0.14491,0.11398 -0.37123,0.11398 -0.29145,0 -0.46567,-0.20353 v 0.82387 l -0.20189,0.0277 v -2.390203 h 0.16607 l 0.0228,0.252371 q 0.0912,-0.130256 0.22306,-0.206782 0.13351,-0.07653 0.29796,-0.07653 z m -0.0358,0.17259 q -0.15793,0 -0.27842,0.09606 -0.12049,0.09444 -0.19376,0.201897 v 0.885752 q 0.0716,0.10583 0.18562,0.16933 0.11397,0.0635 0.24749,0.0635 0.23771,0 0.35332,-0.17422 0.11723,-0.17422 0.11723,-0.532426 0,-0.227949 -0.0456,-0.385885 -0.0456,-0.157936 -0.14166,-0.240974 -0.0944,-0.08304 -0.24423,-0.08304 z m 1.42631,0.794564 q 0.005,0.214925 0.0765,0.353325 0.0733,0.13676 0.19212,0.20189 0.11886,0.0651 0.25889,0.0651 0.13514,0 0.23935,-0.0391 0.10583,-0.0391 0.22143,-0.11886 l 0.10583,0.15143 q -0.11885,0.0912 -0.26865,0.14165 -0.14817,0.0505 -0.28982,0.0505 -0.23609,0 -0.40542,-0.11072 -0.16771,-0.11072 -0.25726,-0.30936 -0.0896,-0.20027 -0.0896,-0.465667 0,-0.260513 0.0912,-0.460782 0.0912,-0.20027 0.25237,-0.312616 0.16282,-0.113974 0.37774,-0.113974 0.20841,0 0.35658,0.100949 0.14817,0.100948 0.22632,0.286564 0.0798,0.183987 0.0798,0.439615 0,0.04396 -0.002,0.07978 -0.002,0.03419 -0.003,0.06024 z m 0.50963,-0.778282 q -0.20678,0 -0.34844,0.146538 -0.14002,0.146539 -0.15793,0.449385 h 0.97204 q -0.007,-0.301218 -0.13515,-0.447757 -0.12862,-0.148166 -0.33052,-0.148166 z"
         id="path50" />
      <path
         style="font-weight:300;-inkscape-font-specification:'Fira Code Light'"
         d="m 97.822868,102.63431 v 0.81899 h 0.846667 v 0.1905 h -0.846667 v 0.86132 h 1.04368 v 0.18073 h -1.25209 v -2.23715 h 1.214641 l -0.02768,0.18561 z m 2.212732,1.90012 q 0.21818,0 0.34192,-0.083 0.12538,-0.0847 0.12538,-0.22144 0,-0.0847 -0.0277,-0.14653 -0.0261,-0.0635 -0.11561,-0.11235 -0.0879,-0.0505 -0.27191,-0.0944 -0.183984,-0.0456 -0.319125,-0.10094 -0.133513,-0.0554 -0.206782,-0.14491 -0.07327,-0.0896 -0.07327,-0.23772 0,-0.14166 0.07978,-0.24098 0.08141,-0.10095 0.221436,-0.15305 0.141653,-0.0537 0.319131,-0.0537 0.20027,0 0.34844,0.0537 0.14979,0.0537 0.25074,0.13026 l -0.0944,0.14979 q -0.0944,-0.0667 -0.21004,-0.11072 -0.1156,-0.044 -0.29307,-0.044 -0.226325,0 -0.317505,0.0716 -0.09118,0.0717 -0.09118,0.18074 0,0.0847 0.04396,0.14002 0.04559,0.0537 0.148167,0.0961 0.102577,0.0407 0.276798,0.0879 0.16771,0.044 0.29308,0.10583 0.12537,0.0619 0.19538,0.16119 0.07,0.0993 0.07,0.25726 0,0.18073 -0.10258,0.28982 -0.10095,0.10746 -0.26051,0.15631 -0.15957,0.0472 -0.33216,0.0472 -0.226313,0 -0.382621,-0.0668 -0.154679,-0.0668 -0.257256,-0.15631 l 0.125372,-0.14816 q 0.100948,0.0847 0.232833,0.13676 0.131885,0.0505 0.283302,0.0505 z m 2.13621,-0.002 q 0.13677,0 0.25237,-0.0423 0.11723,-0.0423 0.21167,-0.10909 l 0.10583,0.13677 q -0.11235,0.0944 -0.26865,0.14816 -0.15631,0.0521 -0.29308,0.0521 -0.24912,0 -0.42334,-0.10747 -0.17258,-0.10909 -0.26376,-0.30773 -0.0896,-0.19864 -0.0896,-0.46566 0,-0.254 0.0896,-0.4559 0.0912,-0.2019 0.26376,-0.31913 0.17422,-0.11723 0.42497,-0.11723 0.15468,0 0.2947,0.0489 0.14166,0.0488 0.26051,0.14491 l -0.10746,0.14491 q -0.1156,-0.0798 -0.22957,-0.11886 -0.11235,-0.0407 -0.22795,-0.0407 -0.23609,0 -0.39077,0.17911 -0.15305,0.1791 -0.15305,0.53405 0,0.23934 0.07,0.39402 0.07,0.15305 0.19213,0.22795 0.12374,0.0733 0.28168,0.0733 z m 2.38206,-0.18399 q 0,0.10421 0.0358,0.15305 0.0358,0.0472 0.11072,0.07 l -0.0554,0.14816 q -0.0977,-0.0147 -0.17422,-0.0716 -0.0765,-0.057 -0.10746,-0.17421 -0.0896,0.11885 -0.22469,0.18235 -0.13351,0.0619 -0.30285,0.0619 -0.254,0 -0.39891,-0.14329 -0.14491,-0.14328 -0.14491,-0.38262 0,-0.26052 0.2019,-0.39891 0.20353,-0.1384 0.59104,-0.1384 h 0.25888 v -0.16608 q 0,-0.20027 -0.1156,-0.28005 -0.11397,-0.0814 -0.31261,-0.0814 -0.0863,0 -0.19539,0.0195 -0.10909,0.0195 -0.2426,0.0667 l -0.0586,-0.16607 q 0.15468,-0.057 0.28006,-0.0798 0.127,-0.0228 0.24585,-0.0228 0.30122,0 0.45427,0.14817 0.15468,0.14654 0.15468,0.38914 z m -0.67896,0.20841 q 0.14003,0 0.26214,-0.0684 0.12212,-0.0684 0.20678,-0.1905 v -0.48846 h -0.2833 q -0.30448,0 -0.42496,0.10746 -0.12049,0.10583 -0.12049,0.28168 0,0.17747 0.0879,0.26865 0.0879,0.0896 0.27191,0.0896 z m 2.1818,-1.61192 q 0.22957,0 0.36472,0.11072 0.13514,0.11072 0.19375,0.31099 0.0586,0.19864 0.0586,0.46403 0,0.25726 -0.0716,0.45753 -0.07,0.20027 -0.21656,0.31587 -0.14491,0.11398 -0.37123,0.11398 -0.29144,0 -0.46566,-0.20353 v 0.82387 l -0.2019,0.0277 v -2.3902 h 0.16608 l 0.0228,0.25237 q 0.0912,-0.13026 0.22307,-0.20678 0.13351,-0.0765 0.29796,-0.0765 z m -0.0358,0.17259 q -0.15794,0 -0.27843,0.0961 -0.12048,0.0944 -0.19375,0.2019 v 0.88575 q 0.0716,0.10583 0.18561,0.16933 0.11398,0.0635 0.24749,0.0635 0.23772,0 0.35332,-0.17422 0.11723,-0.17422 0.11723,-0.53242 0,-0.22795 -0.0456,-0.38589 -0.0456,-0.15793 -0.14165,-0.24097 -0.0944,-0.083 -0.24423,-0.083 z m 1.42631,0.79456 q 0.005,0.21493 0.0765,0.35333 0.0733,0.13676 0.19213,0.20189 0.11886,0.0651 0.25888,0.0651 0.13515,0 0.23935,-0.0391 0.10583,-0.0391 0.22144,-0.11886 l 0.10583,0.15143 q -0.11886,0.0912 -0.26865,0.14165 -0.14817,0.0505 -0.28982,0.0505 -0.23609,0 -0.40543,-0.11072 -0.1677,-0.11072 -0.25725,-0.30936 -0.0896,-0.20027 -0.0896,-0.46567 0,-0.26051 0.0912,-0.46078 0.0912,-0.20027 0.25238,-0.31261 0.16282,-0.11398 0.37774,-0.11398 0.20841,0 0.35658,0.10095 0.14816,0.10095 0.22632,0.28656 0.0798,0.18399 0.0798,0.43962 0,0.044 -0.002,0.0798 -0.002,0.0342 -0.003,0.0602 z m 0.50962,-0.77828 q -0.20678,0 -0.34843,0.14654 -0.14003,0.14654 -0.15794,0.44939 h 0.97204 q -0.007,-0.30122 -0.13514,-0.44776 -0.12863,-0.14817 -0.33053,-0.14817 z"
         id="path51" />
    </g>
    <path
       style="fill:#000000;fill-opacity:1;fill-rule:nonzero;stroke:#000000;stroke-width:0.293114;stroke-dasharray:none;stroke-opacity:1"
       d="M 97.39519,97.790078 H 96.478206"
       id="path11" />
    <path
       style="fill:#000000;fill-opacity:1;fill-rule:nonzero;stroke:#000000;stroke-width:0.293114;stroke-dasharray:none;stroke-opacity:1"
       d="m 96.478207,105.31644 h 0.916982"
       id="path12" />
    <path
       style="fill:#000000;fill-opacity:1;fill-rule:nonzero;stroke:#000000;stroke-width:0.264999;stroke-dasharray:none;stroke-opacity:1"
       d="m 96.610789,97.790078 v 7.658862"
       id="path13" />
    <path
       style="fill:#000000;fill-opacity:1;fill-rule:nonzero;stroke:#000000;stroke-width:0.265;stroke-dasharray:none;stroke-opacity:1"
       d="m 132.0776,93.753613 v 3.491611"
       id="path10-3" />
    <g
       id="text10-7"
       style="font-size:3.175px;font-family:'Fira Code';-inkscape-font-specification:'Fira Code';stroke:#000000;stroke-width:0.065;stroke-dasharray:none"
       aria-label="NoEscape&#10;Escape">
      <path
         style="font-weight:300;-inkscape-font-specification:'Fira Code Light';stroke-width:0.065;stroke-dasharray:none"
         d="m 126.29321,100.7171 -0.84667,-2.017344 q -0.002,0.02605 0.002,0.10909 0.003,0.08141 0.008,0.198641 0.007,0.11723 0.01,0.249115 0.005,0.130256 0.005,0.255628 v 1.20487 h -0.20516 v -2.237152 h 0.29796 l 0.86947,2.030372 q 0.003,-0.0293 -0.003,-0.15142 -0.007,-0.12212 -0.0147,-0.30122 -0.007,-0.179104 -0.007,-0.379373 v -1.198359 h 0.20516 v 2.237152 z m 1.60541,-1.740549 q 0.23446,0 0.39077,0.10909 0.15631,0.109089 0.23283,0.30773 0.0782,0.198641 0.0782,0.468923 0,0.253996 -0.0798,0.454266 -0.0798,0.20027 -0.23772,0.3175 -0.15631,0.11561 -0.38914,0.11561 -0.23446,0 -0.3924,-0.11072 -0.15631,-0.11235 -0.23609,-0.31099 -0.0781,-0.20027 -0.0781,-0.462409 0,-0.262141 0.0798,-0.46241 0.0798,-0.20027 0.23772,-0.312616 0.15956,-0.113974 0.39402,-0.113974 z m 0,0.177474 q -0.24097,0 -0.36634,0.174218 -0.12375,0.174218 -0.12375,0.537308 0,0.354949 0.12212,0.530799 0.12211,0.17421 0.36309,0.17421 0.24097,0 0.36309,-0.17421 0.12211,-0.17585 0.12211,-0.534056 0,-0.359833 -0.12211,-0.534051 -0.12049,-0.174218 -0.35821,-0.174218 z m 1.62007,-0.488461 v 0.818987 h 0.84666 v 0.1905 h -0.84666 v 0.861319 h 1.04368 v 0.18073 h -1.25209 v -2.237152 h 1.21464 l -0.0277,0.185616 z m 2.21273,1.900116 q 0.21818,0 0.34192,-0.083 0.12537,-0.0847 0.12537,-0.22144 0,-0.0847 -0.0277,-0.14653 -0.0261,-0.0635 -0.11561,-0.11235 -0.0879,-0.05047 -0.27191,-0.09444 -0.18398,-0.04559 -0.31913,-0.100949 -0.13351,-0.05536 -0.20678,-0.14491 -0.0733,-0.08955 -0.0733,-0.237718 0,-0.141654 0.0798,-0.240974 0.0814,-0.100949 0.22144,-0.153051 0.14165,-0.05373 0.31913,-0.05373 0.20027,0 0.34843,0.05373 0.1498,0.05373 0.25075,0.130256 l -0.0944,0.149795 q -0.0944,-0.06676 -0.21004,-0.110718 -0.1156,-0.04396 -0.29307,-0.04396 -0.22632,0 -0.3175,0.07164 -0.0912,0.07164 -0.0912,0.180731 0,0.08467 0.044,0.140026 0.0456,0.05373 0.14817,0.09606 0.10257,0.04071 0.27679,0.08792 0.16771,0.04396 0.29308,0.105833 0.12537,0.06187 0.19538,0.161193 0.07,0.09932 0.07,0.257256 0,0.18073 -0.10258,0.28982 -0.10095,0.10746 -0.26051,0.15631 -0.15957,0.0472 -0.33216,0.0472 -0.22632,0 -0.38263,-0.0668 -0.15468,-0.0668 -0.25725,-0.15631 l 0.12537,-0.14816 q 0.10095,0.0847 0.23283,0.13676 0.13189,0.0505 0.28331,0.0505 z m 2.13621,-0.002 q 0.13677,0 0.25237,-0.0423 0.11723,-0.0423 0.21166,-0.10909 l 0.10584,0.13677 q -0.11235,0.0944 -0.26866,0.14816 -0.1563,0.0521 -0.29307,0.0521 -0.24912,0 -0.42334,-0.10747 -0.17259,-0.10909 -0.26377,-0.30773 -0.0896,-0.19864 -0.0896,-0.465663 0,-0.254 0.0896,-0.455897 0.0912,-0.201898 0.26377,-0.319128 0.17422,-0.117231 0.42497,-0.117231 0.15467,0 0.2947,0.04885 0.14165,0.04885 0.26051,0.14491 l -0.10746,0.14491 q -0.1156,-0.07978 -0.22958,-0.118859 -0.11234,-0.04071 -0.22794,-0.04071 -0.23609,0 -0.39077,0.179103 -0.15305,0.179102 -0.15305,0.534051 0,0.239344 0.07,0.394024 0.07,0.15305 0.19213,0.22795 0.12374,0.0733 0.28168,0.0733 z m 2.38206,-0.18399 q 0,0.10421 0.0358,0.15305 0.0358,0.0472 0.11072,0.07 l -0.0554,0.14816 q -0.0977,-0.0147 -0.17422,-0.0716 -0.0765,-0.057 -0.10746,-0.17421 -0.0896,0.11885 -0.22469,0.18235 -0.13351,0.0619 -0.30285,0.0619 -0.254,0 -0.39891,-0.14329 -0.14491,-0.14328 -0.14491,-0.38262 0,-0.260517 0.2019,-0.398914 0.20353,-0.138398 0.59104,-0.138398 h 0.25888 v -0.166077 q 0,-0.200269 -0.1156,-0.280051 -0.11397,-0.08141 -0.31261,-0.08141 -0.0863,0 -0.19539,0.01954 -0.10909,0.01954 -0.2426,0.06676 l -0.0586,-0.166077 q 0.15468,-0.05699 0.28005,-0.07978 0.127,-0.0228 0.24586,-0.0228 0.30122,0 0.45427,0.148166 0.15468,0.146539 0.15468,0.389141 z m -0.67896,0.20841 q 0.14003,0 0.26214,-0.0684 0.12212,-0.0684 0.20678,-0.1905 v -0.488462 h -0.2833 q -0.30448,0 -0.42497,0.107461 -0.12048,0.105831 -0.12048,0.281681 0,0.17747 0.0879,0.26865 0.0879,0.0896 0.27191,0.0896 z m 2.1818,-1.611919 q 0.22957,0 0.36471,0.110718 0.13515,0.110718 0.19376,0.310987 0.0586,0.198641 0.0586,0.464038 0,0.257256 -0.0716,0.457526 -0.07,0.20027 -0.21656,0.31587 -0.14491,0.11398 -0.37123,0.11398 -0.29145,0 -0.46566,-0.20353 v 0.82387 l -0.2019,0.0277 v -2.390203 h 0.16608 l 0.0228,0.252371 q 0.0912,-0.130256 0.22307,-0.206782 0.13351,-0.07653 0.29796,-0.07653 z m -0.0358,0.17259 q -0.15794,0 -0.27843,0.09606 -0.12048,0.09444 -0.19375,0.201897 v 0.885752 q 0.0716,0.10583 0.18561,0.16933 0.11398,0.0635 0.24749,0.0635 0.23772,0 0.35332,-0.17422 0.11723,-0.17422 0.11723,-0.532426 0,-0.227949 -0.0456,-0.385885 -0.0456,-0.157936 -0.14165,-0.240974 -0.0944,-0.08304 -0.24423,-0.08304 z m 1.4263,0.794564 q 0.005,0.214925 0.0765,0.353325 0.0733,0.13676 0.19213,0.20189 0.11886,0.0651 0.25888,0.0651 0.13514,0 0.23935,-0.0391 0.10583,-0.0391 0.22144,-0.11886 l 0.10583,0.15143 q -0.11886,0.0912 -0.26866,0.14165 -0.14816,0.0505 -0.28982,0.0505 -0.23609,0 -0.40542,-0.11072 -0.1677,-0.11072 -0.25726,-0.30936 -0.0896,-0.20027 -0.0896,-0.465667 0,-0.260513 0.0912,-0.460782 0.0912,-0.20027 0.25237,-0.312616 0.16283,-0.113974 0.37775,-0.113974 0.20841,0 0.35658,0.100949 0.14816,0.100948 0.22632,0.286564 0.0798,0.183987 0.0798,0.439615 0,0.04396 -0.002,0.07978 -0.002,0.03419 -0.003,0.06024 z m 0.50963,-0.778282 q -0.20678,0 -0.34843,0.146538 -0.14003,0.146539 -0.15794,0.449385 h 0.97204 q -0.007,-0.301218 -0.13514,-0.447757 -0.12863,-0.148166 -0.33053,-0.148166 z"
         id="path28" />
      <path
         style="font-weight:300;-inkscape-font-specification:'Fira Code Light';stroke-width:0.065;stroke-dasharray:none"
         d="m 125.61099,102.63431 v 0.81899 h 0.84667 v 0.1905 h -0.84667 v 0.86132 h 1.04368 v 0.18073 h -1.25209 v -2.23715 h 1.21464 l -0.0277,0.18561 z m 2.21273,1.90012 q 0.21818,0 0.34193,-0.083 0.12537,-0.0847 0.12537,-0.22144 0,-0.0847 -0.0277,-0.14653 -0.026,-0.0635 -0.1156,-0.11235 -0.0879,-0.0505 -0.27191,-0.0944 -0.18399,-0.0456 -0.31913,-0.10094 -0.13351,-0.0554 -0.20678,-0.14491 -0.0733,-0.0896 -0.0733,-0.23772 0,-0.14166 0.0798,-0.24098 0.0814,-0.10095 0.22144,-0.15305 0.14165,-0.0537 0.31912,-0.0537 0.20027,0 0.34844,0.0537 0.14979,0.0537 0.25074,0.13026 l -0.0944,0.14979 q -0.0944,-0.0667 -0.21004,-0.11072 -0.1156,-0.044 -0.29308,-0.044 -0.22632,0 -0.3175,0.0716 -0.0912,0.0717 -0.0912,0.18074 0,0.0847 0.044,0.14002 0.0456,0.0537 0.14817,0.0961 0.10258,0.0407 0.2768,0.0879 0.1677,0.044 0.29307,0.10583 0.12537,0.0619 0.19539,0.16119 0.07,0.0993 0.07,0.25726 0,0.18073 -0.10258,0.28982 -0.10095,0.10746 -0.26051,0.15631 -0.15956,0.0472 -0.33215,0.0472 -0.22632,0 -0.38263,-0.0668 -0.15468,-0.0668 -0.25726,-0.15631 l 0.12537,-0.14816 q 0.10095,0.0847 0.23284,0.13676 0.13188,0.0505 0.2833,0.0505 z m 2.13621,-0.002 q 0.13677,0 0.25237,-0.0423 0.11723,-0.0423 0.21167,-0.10909 l 0.10583,0.13677 q -0.11234,0.0944 -0.26865,0.14816 -0.15631,0.0521 -0.29308,0.0521 -0.24911,0 -0.42333,-0.10747 -0.17259,-0.10909 -0.26377,-0.30773 -0.0896,-0.19864 -0.0896,-0.46566 0,-0.254 0.0896,-0.4559 0.0912,-0.2019 0.26377,-0.31913 0.17422,-0.11723 0.42496,-0.11723 0.15468,0 0.29471,0.0489 0.14165,0.0488 0.26051,0.14491 l -0.10746,0.14491 q -0.11561,-0.0798 -0.22958,-0.11886 -0.11235,-0.0407 -0.22795,-0.0407 -0.23609,0 -0.39077,0.17911 -0.15305,0.1791 -0.15305,0.53405 0,0.23934 0.07,0.39402 0.07,0.15305 0.19213,0.22795 0.12375,0.0733 0.28168,0.0733 z m 2.38207,-0.18399 q 0,0.10421 0.0358,0.15305 0.0358,0.0472 0.11072,0.07 l -0.0554,0.14816 q -0.0977,-0.0147 -0.17422,-0.0716 -0.0765,-0.057 -0.10746,-0.17421 -0.0896,0.11885 -0.2247,0.18235 -0.13351,0.0619 -0.30284,0.0619 -0.254,0 -0.39891,-0.14329 -0.14491,-0.14328 -0.14491,-0.38262 0,-0.26052 0.2019,-0.39891 0.20352,-0.1384 0.59103,-0.1384 h 0.25889 v -0.16608 q 0,-0.20027 -0.1156,-0.28005 -0.11398,-0.0814 -0.31262,-0.0814 -0.0863,0 -0.19538,0.0195 -0.10909,0.0195 -0.24261,0.0667 l -0.0586,-0.16607 q 0.15468,-0.057 0.28005,-0.0798 0.127,-0.0228 0.24586,-0.0228 0.30122,0 0.45427,0.14817 0.15468,0.14654 0.15468,0.38914 z m -0.67896,0.20841 q 0.14002,0 0.26214,-0.0684 0.12211,-0.0684 0.20678,-0.1905 v -0.48846 h -0.28331 q -0.30447,0 -0.42496,0.10746 -0.12049,0.10583 -0.12049,0.28168 0,0.17747 0.0879,0.26865 0.0879,0.0896 0.27192,0.0896 z m 2.18179,-1.61192 q 0.22958,0 0.36472,0.11072 0.13514,0.11072 0.19376,0.31099 0.0586,0.19864 0.0586,0.46403 0,0.25726 -0.0716,0.45753 -0.07,0.20027 -0.21655,0.31587 -0.14491,0.11398 -0.37123,0.11398 -0.29145,0 -0.46567,-0.20353 v 0.82387 l -0.2019,0.0277 v -2.3902 h 0.16608 l 0.0228,0.25237 q 0.0912,-0.13026 0.22306,-0.20678 0.13351,-0.0765 0.29796,-0.0765 z m -0.0358,0.17259 q -0.15794,0 -0.27842,0.0961 -0.12049,0.0944 -0.19376,0.2019 v 0.88575 q 0.0716,0.10583 0.18562,0.16933 0.11397,0.0635 0.24748,0.0635 0.23772,0 0.35332,-0.17422 0.11724,-0.17422 0.11724,-0.53242 0,-0.22795 -0.0456,-0.38589 -0.0456,-0.15793 -0.14166,-0.24097 -0.0944,-0.083 -0.24423,-0.083 z m 1.42631,0.79456 q 0.005,0.21493 0.0765,0.35333 0.0733,0.13676 0.19212,0.20189 0.11886,0.0651 0.25889,0.0651 0.13514,0 0.23934,-0.0391 0.10584,-0.0391 0.22144,-0.11886 l 0.10583,0.15143 q -0.11886,0.0912 -0.26865,0.14165 -0.14817,0.0505 -0.28982,0.0505 -0.23609,0 -0.40542,-0.11072 -0.16771,-0.11072 -0.25726,-0.30936 -0.0896,-0.20027 -0.0896,-0.46567 0,-0.26051 0.0912,-0.46078 0.0912,-0.20027 0.25237,-0.31261 0.16282,-0.11398 0.37774,-0.11398 0.20841,0 0.35658,0.10095 0.14817,0.10095 0.22632,0.28656 0.0798,0.18399 0.0798,0.43962 0,0.044 -0.002,0.0798 -0.002,0.0342 -0.003,0.0602 z m 0.50963,-0.77828 q -0.20678,0 -0.34844,0.14654 -0.14002,0.14654 -0.15793,0.44939 h 0.97203 q -0.007,-0.30122 -0.13514,-0.44776 -0.12862,-0.14817 -0.33052,-0.14817 z"
         id="path29" />
    </g>
    <path
       style="fill:#000000;fill-opacity:1;fill-rule:nonzero;stroke:#000000;stroke-width:0.293114;stroke-dasharray:none;stroke-opacity:1"
       d="m 125.18332,97.790074 h -0.91698"
       id="path11-2" />
    <path
       style="fill:#000000;fill-opacity:1;fill-rule:nonzero;stroke:#000000;stroke-width:0.293114;stroke-dasharray:none;stroke-opacity:1"
       d="m 124.26634,105.31644 h 0.91698"
       id="path12-2" />
    <path
       style="fill:#000000;fill-opacity:1;fill-rule:nonzero;stroke:#000000;stroke-width:0.264999;stroke-dasharray:none;stroke-opacity:1"
       d="m 124.39892,97.790074 v 7.658866"
       id="path13-8" />
    <path
       style="fill:#000000;fill-opacity:1;fill-rule:nonzero;stroke:#000000;stroke-width:0.265;stroke-dasharray:none;stroke-opacity:1"
       d="m 159.77464,93.753623 v 3.491611"
       id="path10-3-1" />
    <g
       id="text10-7-2"
       style="font-size:3.175px;font-family:'Fira Code';-inkscape-font-specification:'Fira Code';stroke:#000000;stroke-width:0.065"
       aria-label="NoEscape&#10;Escape">
      <path
         style="font-weight:300;-inkscape-font-specification:'Fira Code Light'"
         d="m 153.99025,100.7171 -0.84667,-2.017344 q -0.002,0.02605 0.002,0.10909 0.003,0.08141 0.008,0.198641 0.007,0.11723 0.01,0.249115 0.005,0.130256 0.005,0.255628 v 1.20487 h -0.20515 v -2.237152 h 0.29796 l 0.86946,2.030372 q 0.003,-0.0293 -0.003,-0.15142 -0.007,-0.12212 -0.0147,-0.30122 -0.007,-0.179104 -0.007,-0.379373 v -1.198359 h 0.20515 v 2.237152 z m 1.60541,-1.740549 q 0.23446,0 0.39077,0.10909 0.15631,0.109089 0.23283,0.30773 0.0782,0.198641 0.0782,0.468923 0,0.253996 -0.0798,0.454266 -0.0798,0.20027 -0.23771,0.3175 -0.15631,0.11561 -0.38915,0.11561 -0.23446,0 -0.39239,-0.11072 -0.15631,-0.11235 -0.23609,-0.31099 -0.0782,-0.20027 -0.0782,-0.462409 0,-0.262141 0.0798,-0.46241 0.0798,-0.20027 0.23771,-0.312616 0.15957,-0.113974 0.39403,-0.113974 z m 0,0.177474 q -0.24098,0 -0.36635,0.174218 -0.12374,0.174218 -0.12374,0.537308 0,0.354949 0.12211,0.530799 0.12212,0.17421 0.36309,0.17421 0.24098,0 0.36309,-0.17421 0.12212,-0.17585 0.12212,-0.534056 0,-0.359833 -0.12212,-0.534051 -0.12048,-0.174218 -0.3582,-0.174218 z m 1.62006,-0.488461 v 0.818987 h 0.84667 v 0.1905 h -0.84667 v 0.861319 h 1.04368 v 0.18073 h -1.25209 v -2.237152 h 1.21465 l -0.0277,0.185616 z m 2.21274,1.900116 q 0.21818,0 0.34192,-0.083 0.12537,-0.0847 0.12537,-0.22144 0,-0.0847 -0.0277,-0.14653 -0.026,-0.0635 -0.1156,-0.11235 -0.0879,-0.05047 -0.27191,-0.09444 -0.18399,-0.04559 -0.31913,-0.100949 -0.13351,-0.05536 -0.20678,-0.14491 -0.0733,-0.08955 -0.0733,-0.237718 0,-0.141654 0.0798,-0.240974 0.0814,-0.100949 0.22144,-0.153051 0.14165,-0.05373 0.31913,-0.05373 0.20027,0 0.34843,0.05373 0.1498,0.05373 0.25075,0.130256 l -0.0944,0.149795 q -0.0944,-0.06676 -0.21004,-0.110718 -0.1156,-0.04396 -0.29308,-0.04396 -0.22632,0 -0.3175,0.07164 -0.0912,0.07164 -0.0912,0.180731 0,0.08467 0.044,0.140026 0.0456,0.05373 0.14816,0.09606 0.10258,0.04071 0.2768,0.08792 0.1677,0.04396 0.29307,0.105833 0.12538,0.06187 0.19539,0.161193 0.07,0.09932 0.07,0.257256 0,0.18073 -0.10257,0.28982 -0.10095,0.10746 -0.26052,0.15631 -0.15956,0.0472 -0.33215,0.0472 -0.22632,0 -0.38263,-0.0668 -0.15468,-0.0668 -0.25726,-0.15631 l 0.12538,-0.14816 q 0.10094,0.0847 0.23283,0.13676 0.13188,0.0505 0.28331,0.0505 z m 2.1362,-0.002 q 0.13677,0 0.25237,-0.0423 0.11724,-0.0423 0.21167,-0.10909 l 0.10583,0.13677 q -0.11234,0.0944 -0.26865,0.14816 -0.15631,0.0521 -0.29308,0.0521 -0.24911,0 -0.42333,-0.10747 -0.17259,-0.10909 -0.26377,-0.30773 -0.0896,-0.19864 -0.0896,-0.465663 0,-0.254 0.0896,-0.455897 0.0912,-0.201898 0.26377,-0.319128 0.17422,-0.117231 0.42496,-0.117231 0.15468,0 0.29471,0.04885 0.14165,0.04885 0.26051,0.14491 l -0.10746,0.14491 q -0.1156,-0.07978 -0.22958,-0.118859 -0.11234,-0.04071 -0.22795,-0.04071 -0.23609,0 -0.39077,0.179103 -0.15305,0.179102 -0.15305,0.534051 0,0.239344 0.07,0.394024 0.07,0.15305 0.19212,0.22795 0.12375,0.0733 0.28168,0.0733 z m 2.38207,-0.18399 q 0,0.10421 0.0358,0.15305 0.0358,0.0472 0.11072,0.07 l -0.0554,0.14816 q -0.0977,-0.0147 -0.17422,-0.0716 -0.0765,-0.057 -0.10746,-0.17421 -0.0895,0.11885 -0.22469,0.18235 -0.13352,0.0619 -0.30285,0.0619 -0.254,0 -0.39891,-0.14329 -0.14491,-0.14328 -0.14491,-0.38262 0,-0.260517 0.2019,-0.398914 0.20352,-0.138398 0.59104,-0.138398 h 0.25888 v -0.166077 q 0,-0.200269 -0.1156,-0.280051 -0.11398,-0.08141 -0.31262,-0.08141 -0.0863,0 -0.19538,0.01954 -0.10909,0.01954 -0.24261,0.06676 l -0.0586,-0.166077 q 0.15468,-0.05699 0.28005,-0.07978 0.127,-0.0228 0.24586,-0.0228 0.30122,0 0.45427,0.148166 0.15468,0.146539 0.15468,0.389141 z m -0.67896,0.20841 q 0.14002,0 0.26214,-0.0684 0.12211,-0.0684 0.20678,-0.1905 v -0.488462 h -0.28331 q -0.30447,0 -0.42496,0.107461 -0.12049,0.105831 -0.12049,0.281681 0,0.17747 0.0879,0.26865 0.0879,0.0896 0.27191,0.0896 z m 2.18179,-1.611919 q 0.22958,0 0.36472,0.110718 0.13514,0.110718 0.19376,0.310987 0.0586,0.198641 0.0586,0.464038 0,0.257256 -0.0716,0.457526 -0.07,0.20027 -0.21655,0.31587 -0.14491,0.11398 -0.37123,0.11398 -0.29145,0 -0.46567,-0.20353 v 0.82387 l -0.20189,0.0277 v -2.390203 h 0.16607 l 0.0228,0.252371 q 0.0912,-0.130256 0.22306,-0.206782 0.13351,-0.07653 0.29796,-0.07653 z m -0.0358,0.17259 q -0.15793,0 -0.27842,0.09606 -0.12049,0.09444 -0.19376,0.201897 v 0.885752 q 0.0716,0.10583 0.18562,0.16933 0.11397,0.0635 0.24749,0.0635 0.23771,0 0.35332,-0.17422 0.11723,-0.17422 0.11723,-0.532426 0,-0.227949 -0.0456,-0.385885 -0.0456,-0.157936 -0.14166,-0.240974 -0.0944,-0.08304 -0.24423,-0.08304 z m 1.42631,0.794564 q 0.005,0.214925 0.0765,0.353325 0.0733,0.13676 0.19213,0.20189 0.11885,0.0651 0.25888,0.0651 0.13514,0 0.23935,-0.0391 0.10583,-0.0391 0.22143,-0.11886 l 0.10584,0.15143 q -0.11886,0.0912 -0.26866,0.14165 -0.14817,0.0505 -0.28982,0.0505 -0.23609,0 -0.40542,-0.11072 -0.16771,-0.11072 -0.25726,-0.30936 -0.0896,-0.20027 -0.0896,-0.465667 0,-0.260513 0.0912,-0.460782 0.0912,-0.20027 0.25237,-0.312616 0.16282,-0.113974 0.37774,-0.113974 0.20842,0 0.35658,0.100949 0.14817,0.100948 0.22632,0.286564 0.0798,0.183987 0.0798,0.439615 0,0.04396 -0.002,0.07978 -0.002,0.03419 -0.003,0.06024 z m 0.50963,-0.778282 q -0.20678,0 -0.34844,0.146538 -0.14002,0.146539 -0.15793,0.449385 h 0.97204 q -0.007,-0.301218 -0.13514,-0.447757 -0.12863,-0.148166 -0.33053,-0.148166 z"
         id="path52" />
      <path
         style="font-weight:300;-inkscape-font-specification:'Fira Code Light'"
         d="m 153.30803,102.63431 v 0.81899 h 0.84667 v 0.1905 h -0.84667 v 0.86132 h 1.04368 v 0.18073 h -1.25209 v -2.23715 h 1.21464 l -0.0277,0.18561 z m 2.21273,1.90012 q 0.21818,0 0.34192,-0.083 0.12538,-0.0847 0.12538,-0.22144 0,-0.0847 -0.0277,-0.14653 -0.026,-0.0635 -0.11561,-0.11235 -0.0879,-0.0505 -0.27191,-0.0944 -0.18398,-0.0456 -0.31912,-0.10094 -0.13352,-0.0554 -0.20679,-0.14491 -0.0733,-0.0896 -0.0733,-0.23772 0,-0.14166 0.0798,-0.24098 0.0814,-0.10095 0.22143,-0.15305 0.14166,-0.0537 0.31913,-0.0537 0.20027,0 0.34844,0.0537 0.14979,0.0537 0.25074,0.13026 l -0.0944,0.14979 q -0.0944,-0.0667 -0.21003,-0.11072 -0.11561,-0.044 -0.29308,-0.044 -0.22632,0 -0.3175,0.0716 -0.0912,0.0717 -0.0912,0.18074 0,0.0847 0.044,0.14002 0.0456,0.0537 0.14817,0.0961 0.10257,0.0407 0.27679,0.0879 0.16771,0.044 0.29308,0.10583 0.12537,0.0619 0.19538,0.16119 0.07,0.0993 0.07,0.25726 0,0.18073 -0.10258,0.28982 -0.10095,0.10746 -0.26051,0.15631 -0.15957,0.0472 -0.33216,0.0472 -0.22632,0 -0.38262,-0.0668 -0.15468,-0.0668 -0.25726,-0.15631 l 0.12537,-0.14816 q 0.10095,0.0847 0.23283,0.13676 0.13189,0.0505 0.28331,0.0505 z m 2.13621,-0.002 q 0.13677,0 0.25237,-0.0423 0.11723,-0.0423 0.21167,-0.10909 l 0.10583,0.13677 q -0.11235,0.0944 -0.26865,0.14816 -0.15631,0.0521 -0.29308,0.0521 -0.24912,0 -0.42333,-0.10747 -0.17259,-0.10909 -0.26377,-0.30773 -0.0896,-0.19864 -0.0896,-0.46566 0,-0.254 0.0896,-0.4559 0.0912,-0.2019 0.26377,-0.31913 0.17421,-0.11723 0.42496,-0.11723 0.15468,0 0.2947,0.0489 0.14166,0.0488 0.26052,0.14491 l -0.10747,0.14491 q -0.1156,-0.0798 -0.22957,-0.11886 -0.11235,-0.0407 -0.22795,-0.0407 -0.23609,0 -0.39077,0.17911 -0.15305,0.1791 -0.15305,0.53405 0,0.23934 0.07,0.39402 0.07,0.15305 0.19213,0.22795 0.12374,0.0733 0.28168,0.0733 z m 2.38206,-0.18399 q 0,0.10421 0.0358,0.15305 0.0358,0.0472 0.11072,0.07 l -0.0554,0.14816 q -0.0977,-0.0147 -0.17421,-0.0716 -0.0765,-0.057 -0.10747,-0.17421 -0.0896,0.11885 -0.22469,0.18235 -0.13351,0.0619 -0.30284,0.0619 -0.254,0 -0.39892,-0.14329 -0.14491,-0.14328 -0.14491,-0.38262 0,-0.26052 0.2019,-0.39891 0.20353,-0.1384 0.59104,-0.1384 h 0.25889 v -0.16608 q 0,-0.20027 -0.11561,-0.28005 -0.11397,-0.0814 -0.31261,-0.0814 -0.0863,0 -0.19539,0.0195 -0.10909,0.0195 -0.2426,0.0667 l -0.0586,-0.16607 q 0.15468,-0.057 0.28006,-0.0798 0.127,-0.0228 0.24585,-0.0228 0.30122,0 0.45427,0.14817 0.15468,0.14654 0.15468,0.38914 z m -0.67896,0.20841 q 0.14003,0 0.26214,-0.0684 0.12212,-0.0684 0.20679,-0.1905 v -0.48846 h -0.28331 q -0.30448,0 -0.42496,0.10746 -0.12049,0.10583 -0.12049,0.28168 0,0.17747 0.0879,0.26865 0.0879,0.0896 0.27191,0.0896 z m 2.1818,-1.61192 q 0.22958,0 0.36472,0.11072 0.13514,0.11072 0.19375,0.31099 0.0586,0.19864 0.0586,0.46403 0,0.25726 -0.0716,0.45753 -0.07,0.20027 -0.21655,0.31587 -0.14491,0.11398 -0.37124,0.11398 -0.29144,0 -0.46566,-0.20353 v 0.82387 l -0.2019,0.0277 v -2.3902 h 0.16608 l 0.0228,0.25237 q 0.0912,-0.13026 0.22307,-0.20678 0.13351,-0.0765 0.29796,-0.0765 z m -0.0358,0.17259 q -0.15794,0 -0.27843,0.0961 -0.12048,0.0944 -0.19375,0.2019 v 0.88575 q 0.0716,0.10583 0.18561,0.16933 0.11398,0.0635 0.24749,0.0635 0.23772,0 0.35332,-0.17422 0.11723,-0.17422 0.11723,-0.53242 0,-0.22795 -0.0456,-0.38589 -0.0456,-0.15793 -0.14165,-0.24097 -0.0944,-0.083 -0.24423,-0.083 z m 1.42631,0.79456 q 0.005,0.21493 0.0765,0.35333 0.0733,0.13676 0.19213,0.20189 0.11886,0.0651 0.25889,0.0651 0.13514,0 0.23934,-0.0391 0.10583,-0.0391 0.22144,-0.11886 l 0.10583,0.15143 q -0.11886,0.0912 -0.26865,0.14165 -0.14817,0.0505 -0.28982,0.0505 -0.23609,0 -0.40543,-0.11072 -0.1677,-0.11072 -0.25725,-0.30936 -0.0896,-0.20027 -0.0896,-0.46567 0,-0.26051 0.0912,-0.46078 0.0912,-0.20027 0.25238,-0.31261 0.16282,-0.11398 0.37774,-0.11398 0.20841,0 0.35658,0.10095 0.14816,0.10095 0.22632,0.28656 0.0798,0.18399 0.0798,0.43962 0,0.044 -0.002,0.0798 -0.002,0.0342 -0.003,0.0602 z m 0.50962,-0.77828 q -0.20678,0 -0.34843,0.14654 -0.14003,0.14654 -0.15794,0.44939 h 0.97204 q -0.007,-0.30122 -0.13514,-0.44776 -0.12863,-0.14817 -0.33053,-0.14817 z"
         id="path53" />
    </g>
    <path
       style="fill:#000000;fill-opacity:1;fill-rule:nonzero;stroke:#000000;stroke-width:0.293114;stroke-dasharray:none;stroke-opacity:1"
       d="m 152.88036,97.790084 h -0.91698"
       id="path11-2-1" />
    <path
       style="fill:#000000;fill-opacity:1;fill-rule:nonzero;stroke:#000000;stroke-width:0.293114;stroke-dasharray:none;stroke-opacity:1"
       d="m 151.96338,105.31645 h 0.91698"
       id="path12-2-9" />
    <path
       style="fill:#000000;fill-opacity:1;fill-rule:nonzero;stroke:#000000;stroke-width:0.264999;stroke-dasharray:none;stroke-opacity:1"
       d="m 152.09596,97.790084 v 7.658876"
       id="path13-8-4" />
  </g>
</svg>
